<svg width="155" height="43" viewBox="0 0 155 43" fill="none" xmlns="http://www.w3.org/2000/svg">
<ellipse cx="21" cy="21.5" rx="21" ry="21.5" fill="#FF8C39"/>
<path d="M20.3 32L15.7 13.5H19.55L22.825 26.925L26.25 13.5H30.175L33.6 26.9L36.85 13.5H40.725L36.1 32H31.2L28.2 20.225L25.225 32H20.3ZM48.4018 32.25C46.9184 32.25 45.6601 31.9333 44.6268 31.3C43.5934 30.65 42.8018 29.8083 42.2518 28.775C41.7184 27.725 41.4518 26.5917 41.4518 25.375C41.4518 24.1583 41.7184 23.0333 42.2518 22C42.8018 20.95 43.5934 20.1083 44.6268 19.475C45.6601 18.825 46.9184 18.5 48.4018 18.5C49.8851 18.5 51.1434 18.825 52.1768 19.475C53.2101 20.1083 53.9934 20.95 54.5268 22C55.0768 23.0333 55.3518 24.1583 55.3518 25.375C55.3518 26.5917 55.0768 27.725 54.5268 28.775C53.9934 29.8083 53.2101 30.65 52.1768 31.3C51.1434 31.9333 49.8851 32.25 48.4018 32.25ZM48.4018 29.15C49.0684 29.15 49.6268 28.975 50.0768 28.625C50.5434 28.275 50.9018 27.8167 51.1518 27.25C51.4018 26.6667 51.5268 26.0417 51.5268 25.375C51.5268 24.6917 51.4018 24.0667 51.1518 23.5C50.9018 22.9333 50.5434 22.475 50.0768 22.125C49.6268 21.775 49.0684 21.6 48.4018 21.6C47.7351 21.6 47.1684 21.775 46.7018 22.125C46.2351 22.475 45.8768 22.9333 45.6268 23.5C45.3934 24.0667 45.2768 24.6917 45.2768 25.375C45.2768 26.0417 45.3934 26.6667 45.6268 27.25C45.8768 27.8167 46.2351 28.275 46.7018 28.625C47.1684 28.975 47.7351 29.15 48.4018 29.15ZM58.3318 32V18.75H62.1068V20.675H62.2318C62.3818 20.325 62.5902 19.9833 62.8568 19.65C63.1235 19.3167 63.4902 19.0417 63.9568 18.825C64.4235 18.6083 65.0235 18.5 65.7568 18.5C66.1235 18.5 66.4152 18.525 66.6318 18.575C66.8485 18.6083 66.9568 18.625 66.9568 18.625V22.375C66.9568 22.375 66.8318 22.35 66.5818 22.3C66.3485 22.25 66.0402 22.225 65.6568 22.225C64.4735 22.225 63.5902 22.55 63.0068 23.2C62.4235 23.8333 62.1318 24.875 62.1318 26.325V32H58.3318ZM74.3881 32.25C73.4048 32.25 72.5464 32.0583 71.8131 31.675C71.0964 31.275 70.4964 30.75 70.0131 30.1C69.5298 29.4333 69.1631 28.6917 68.9131 27.875C68.6798 27.0583 68.5631 26.225 68.5631 25.375C68.5631 24.525 68.6798 23.6917 68.9131 22.875C69.1631 22.0583 69.5298 21.325 70.0131 20.675C70.4964 20.0083 71.0964 19.4833 71.8131 19.1C72.5464 18.7 73.4048 18.5 74.3881 18.5C75.2381 18.5 75.9381 18.6417 76.4881 18.925C77.0381 19.1917 77.4548 19.4833 77.7381 19.8C78.0381 20.1167 78.2214 20.3333 78.2881 20.45H78.4881V13H82.2881V32H78.4881V30.3H78.2881C78.2214 30.4167 78.0381 30.6333 77.7381 30.95C77.4548 31.2667 77.0381 31.5667 76.4881 31.85C75.9381 32.1167 75.2381 32.25 74.3881 32.25ZM75.4881 29.175C76.1714 29.175 76.7381 28.9917 77.1881 28.625C77.6548 28.2417 77.9964 27.7583 78.2131 27.175C78.4464 26.5917 78.5631 25.9917 78.5631 25.375C78.5631 24.7583 78.4464 24.1583 78.2131 23.575C77.9964 22.9917 77.6548 22.5167 77.1881 22.15C76.7381 21.7667 76.1714 21.575 75.4881 21.575C74.8048 21.575 74.2298 21.7667 73.7631 22.15C73.3131 22.5167 72.9714 22.9917 72.7381 23.575C72.5214 24.1583 72.4131 24.7583 72.4131 25.375C72.4131 25.9917 72.5214 26.5917 72.7381 27.175C72.9714 27.7583 73.3131 28.2417 73.7631 28.625C74.2298 28.9917 74.8048 29.175 75.4881 29.175ZM85.9373 36.875V18.75H89.7373V20.45H89.9123C89.9956 20.3333 90.179 20.1167 90.4623 19.8C90.7623 19.4833 91.1873 19.1917 91.7373 18.925C92.2873 18.6417 92.9873 18.5 93.8373 18.5C94.8206 18.5 95.6706 18.7 96.3873 19.1C97.1206 19.4833 97.729 20.0083 98.2123 20.675C98.6956 21.325 99.054 22.0583 99.2873 22.875C99.5373 23.6917 99.6623 24.525 99.6623 25.375C99.6623 26.225 99.5373 27.0583 99.2873 27.875C99.054 28.6917 98.6956 29.4333 98.2123 30.1C97.729 30.75 97.1206 31.275 96.3873 31.675C95.6706 32.0583 94.8206 32.25 93.8373 32.25C92.9873 32.25 92.2873 32.1167 91.7373 31.85C91.1873 31.5667 90.7623 31.2667 90.4623 30.95C90.179 30.6333 89.9956 30.4167 89.9123 30.3H89.7373V36.875H85.9373ZM89.6623 25.375C89.6623 25.9917 89.7706 26.5917 89.9873 27.175C90.2206 27.7583 90.5623 28.2417 91.0123 28.625C91.479 28.9917 92.054 29.175 92.7373 29.175C93.4206 29.175 93.9873 28.9917 94.4373 28.625C94.904 28.2417 95.2456 27.7583 95.4623 27.175C95.6956 26.5917 95.8123 25.9917 95.8123 25.375C95.8123 24.7583 95.6956 24.1583 95.4623 23.575C95.2456 22.9917 94.904 22.5167 94.4373 22.15C93.9873 21.7667 93.4206 21.575 92.7373 21.575C92.054 21.575 91.479 21.7667 91.0123 22.15C90.5623 22.5167 90.2206 22.9917 89.9873 23.575C89.7706 24.1583 89.6623 24.7583 89.6623 25.375ZM102.637 32V18.75H106.412V20.675H106.537C106.687 20.325 106.895 19.9833 107.162 19.65C107.428 19.3167 107.795 19.0417 108.262 18.825C108.728 18.6083 109.328 18.5 110.062 18.5C110.428 18.5 110.72 18.525 110.937 18.575C111.153 18.6083 111.262 18.625 111.262 18.625V22.375C111.262 22.375 111.137 22.35 110.887 22.3C110.653 22.25 110.345 22.225 109.962 22.225C108.778 22.225 107.895 22.55 107.312 23.2C106.728 23.8333 106.437 24.875 106.437 26.325V32H102.637ZM119.643 32.25C118.476 32.25 117.468 32.0583 116.618 31.675C115.768 31.275 115.068 30.75 114.518 30.1C113.968 29.4333 113.551 28.6917 113.268 27.875C113.001 27.0583 112.868 26.2167 112.868 25.35C112.868 24.5167 112.993 23.7 113.243 22.9C113.509 22.0833 113.909 21.3417 114.443 20.675C114.993 20.0083 115.684 19.4833 116.518 19.1C117.368 18.7 118.368 18.5 119.518 18.5C120.734 18.5 121.809 18.7667 122.743 19.3C123.693 19.8333 124.434 20.625 124.968 21.675C125.501 22.7083 125.768 23.9667 125.768 25.45V26.375H116.693C116.743 27.175 117.018 27.8667 117.518 28.45C118.034 29.0333 118.743 29.325 119.643 29.325C120.159 29.325 120.576 29.25 120.893 29.1C121.226 28.9333 121.484 28.75 121.668 28.55C121.851 28.3333 121.976 28.1417 122.043 27.975C122.109 27.8083 122.143 27.725 122.143 27.725H125.643C125.643 27.725 125.601 27.8833 125.518 28.2C125.451 28.5 125.301 28.875 125.068 29.325C124.834 29.775 124.493 30.225 124.043 30.675C123.609 31.125 123.034 31.5 122.318 31.8C121.601 32.1 120.709 32.25 119.643 32.25ZM116.693 24.075H122.118C122.068 23.1583 121.793 22.475 121.293 22.025C120.793 21.575 120.176 21.35 119.443 21.35C118.709 21.35 118.084 21.5917 117.568 22.075C117.051 22.5417 116.759 23.2083 116.693 24.075ZM134.322 32.25C133.222 32.25 132.314 32.1 131.597 31.8C130.88 31.5 130.305 31.1333 129.872 30.7C129.455 30.25 129.139 29.8083 128.922 29.375C128.722 28.925 128.589 28.55 128.522 28.25C128.472 27.95 128.447 27.8 128.447 27.8H131.972C131.972 27.8 131.997 27.8833 132.047 28.05C132.097 28.2167 132.205 28.4083 132.372 28.625C132.555 28.8417 132.814 29.0333 133.147 29.2C133.48 29.3667 133.93 29.45 134.497 29.45C135.197 29.45 135.672 29.3083 135.922 29.025C136.189 28.7417 136.322 28.4583 136.322 28.175C136.322 27.575 135.83 27.175 134.847 26.975L133.047 26.625C132.28 26.475 131.555 26.2583 130.872 25.975C130.205 25.675 129.664 25.2667 129.247 24.75C128.847 24.2167 128.647 23.5333 128.647 22.7C128.647 21.9 128.855 21.1833 129.272 20.55C129.689 19.9167 130.28 19.4167 131.047 19.05C131.83 18.6833 132.764 18.5 133.847 18.5C134.864 18.5 135.705 18.6417 136.372 18.925C137.055 19.1917 137.597 19.5333 137.997 19.95C138.397 20.35 138.697 20.7583 138.897 21.175C139.097 21.575 139.222 21.9167 139.272 22.2C139.339 22.4667 139.372 22.6 139.372 22.6H135.972C135.972 22.6 135.922 22.4917 135.822 22.275C135.722 22.0417 135.514 21.8167 135.197 21.6C134.897 21.3667 134.43 21.25 133.797 21.25C133.147 21.25 132.697 21.3833 132.447 21.65C132.197 21.9 132.072 22.1667 132.072 22.45C132.072 22.7833 132.214 23.0333 132.497 23.2C132.797 23.3667 133.18 23.5 133.647 23.6L135.372 23.95C136.639 24.2 137.68 24.6417 138.497 25.275C139.314 25.8917 139.722 26.7917 139.722 27.975C139.722 28.775 139.514 29.5 139.097 30.15C138.68 30.8 138.072 31.3167 137.272 31.7C136.472 32.0667 135.489 32.25 134.322 32.25ZM147.853 32.25C146.753 32.25 145.845 32.1 145.128 31.8C144.411 31.5 143.836 31.1333 143.403 30.7C142.986 30.25 142.67 29.8083 142.453 29.375C142.253 28.925 142.12 28.55 142.053 28.25C142.003 27.95 141.978 27.8 141.978 27.8H145.503C145.503 27.8 145.528 27.8833 145.578 28.05C145.628 28.2167 145.736 28.4083 145.903 28.625C146.086 28.8417 146.345 29.0333 146.678 29.2C147.011 29.3667 147.461 29.45 148.028 29.45C148.728 29.45 149.203 29.3083 149.453 29.025C149.72 28.7417 149.853 28.4583 149.853 28.175C149.853 27.575 149.361 27.175 148.378 26.975L146.578 26.625C145.811 26.475 145.086 26.2583 144.403 25.975C143.736 25.675 143.195 25.2667 142.778 24.75C142.378 24.2167 142.178 23.5333 142.178 22.7C142.178 21.9 142.386 21.1833 142.803 20.55C143.22 19.9167 143.811 19.4167 144.578 19.05C145.361 18.6833 146.295 18.5 147.378 18.5C148.395 18.5 149.236 18.6417 149.903 18.925C150.586 19.1917 151.128 19.5333 151.528 19.95C151.928 20.35 152.228 20.7583 152.428 21.175C152.628 21.575 152.753 21.9167 152.803 22.2C152.87 22.4667 152.903 22.6 152.903 22.6H149.503C149.503 22.6 149.453 22.4917 149.353 22.275C149.253 22.0417 149.045 21.8167 148.728 21.6C148.428 21.3667 147.961 21.25 147.328 21.25C146.678 21.25 146.228 21.3833 145.978 21.65C145.728 21.9 145.603 22.1667 145.603 22.45C145.603 22.7833 145.745 23.0333 146.028 23.2C146.328 23.3667 146.711 23.5 147.178 23.6L148.903 23.95C150.17 24.2 151.211 24.6417 152.028 25.275C152.845 25.8917 153.253 26.7917 153.253 27.975C153.253 28.775 153.045 29.5 152.628 30.15C152.211 30.8 151.603 31.3167 150.803 31.7C150.003 32.0667 149.02 32.25 147.853 32.25Z" fill="white"/>
</svg>
